<svg width="76" height="88" viewBox="0 0 76 88" fill="none" xmlns="http://www.w3.org/2000/svg">
<path d="M75.5808 3.66817C75.5808 1.65427 73.9266 0 71.9127 0H14.5347C6.65891 0 0.419434 6.23948 0.419434 13.9354C0.419434 13.9354 0.419434 76.7797 0.419434 76.8157C0.419434 83.0552 5.54408 88 11.7836 88H71.7329C73.2073 88 74.6638 87.083 75.2212 85.6085C75.7786 84.134 75.401 82.4978 74.1244 81.5807C70.8698 79.5129 70.672 74.9816 73.567 72.9677C74.1783 72.3564 75.5629 71.0977 75.455 69.2995C75.5449 69.0118 75.5808 3.66817 75.5808 3.66817ZM7.75576 76.8157C7.75576 74.622 9.58985 72.9677 11.7836 72.9677H64.5943C62.976 75.6649 63.3177 78.8296 64.5943 80.6637H11.7836C9.58985 80.6637 7.75576 79.0274 7.75576 76.8157ZM68.2625 65.6314H11.8015C10.381 65.6314 9.03243 65.9011 7.77374 66.3866V13.9354C7.77374 10.2673 10.8845 7.33633 14.5527 7.33633H68.2805V65.6314H68.2625Z" fill="white"/>
</svg>
