<svg width="88" height="88" viewBox="0 0 88 88" fill="none" xmlns="http://www.w3.org/2000/svg">
<path d="M74.2182 8.71016L74.5701 9.01346L74.8984 8.68477L82.1181 1.45664C83.3922 0.181121 85.2702 0.181121 86.5442 1.45664C87.8198 2.7337 87.8166 4.61322 86.5464 5.86919L86.5442 5.87139L79.3427 13.0814L79.0495 13.3749L79.2839 13.7172C84.216 20.9204 84.3974 31.56 80.2983 43.4924C76.2051 55.4078 67.871 68.5167 55.9408 80.5514L55.8194 80.6738L55.7993 80.845C55.5938 82.5935 54.9326 84.0986 53.7572 85.3159C53.7211 85.3473 53.681 85.3831 53.6369 85.4225C53.2672 85.7526 52.6085 86.3408 51.497 86.8122C50.2349 87.3476 48.3642 87.7387 45.6821 87.3307C40.2949 86.5113 31.6338 82.4673 18.1622 69.8954L18.1619 69.8951C11.7932 63.9615 6.19973 56.7197 3.09021 50.1183C1.53489 46.8164 0.61476 43.7036 0.510037 41.012C0.405656 38.3291 1.11013 36.0971 2.76939 34.4781L2.76941 34.4781L2.77396 34.4736C3.67254 33.574 5.11195 32.5337 7.5485 32.2932L7.72413 32.2759L7.84996 32.1521C43.4995 -2.90492 69.0273 4.23594 74.2182 8.71016ZM48.7859 80.5583L48.9373 81.0348L49.0856 80.9877L49.181 80.8647C49.4319 80.5412 49.5152 80.086 49.5194 79.615C49.5238 79.1262 49.4433 78.5335 49.2833 77.8565C48.9629 76.5002 48.308 74.7412 47.2789 72.6758C45.2187 68.5415 41.6344 63.1317 36.1282 57.1901L35.7684 56.8019L35.4013 57.1832L32.4839 60.2128C31.21 61.485 29.334 61.484 28.0611 60.2095C26.7867 58.9337 26.7867 57.0525 28.0611 55.7766L28.0611 55.7767L28.0675 55.7701L30.9699 52.7553L31.3307 52.3805L30.9419 52.0349C22.2462 44.3034 16.4299 40.9783 12.7549 39.5933C10.915 38.9 9.6046 38.6901 8.73395 38.6617C8.29852 38.6474 7.97385 38.6786 7.74906 38.7169C7.63674 38.7361 7.54968 38.757 7.48651 38.7748C7.45493 38.7838 7.42937 38.7919 7.40965 38.7986C7.39979 38.8019 7.3914 38.8049 7.38445 38.8075L7.37511 38.811L7.37125 38.8125L7.36952 38.8132C7.36871 38.8135 7.36792 38.8139 7.5538 39.278L7.36792 38.8139L7.2421 38.8642L7.15896 38.9713C6.89371 39.3127 6.81243 39.8108 6.81566 40.3294C6.81903 40.8712 6.91617 41.5364 7.10523 42.302C7.484 43.8358 8.24706 45.8337 9.45924 48.1669C11.8854 52.8365 16.1323 58.8907 22.7887 65.3176C32.067 74.2788 38.5321 78.2241 42.7113 79.9228C44.8029 80.7729 46.3263 81.062 47.3456 81.1326C47.8551 81.1679 48.2377 81.1484 48.501 81.1175C48.6325 81.1021 48.7341 81.0838 48.8066 81.0682C48.8428 81.0604 48.8717 81.0532 48.8935 81.0474C48.8975 81.0464 48.9013 81.0453 48.9049 81.0443C48.9109 81.0427 48.9162 81.0412 48.9207 81.0399L48.9303 81.037L48.9342 81.0358L48.9358 81.0353C48.9366 81.0351 48.9373 81.0348 48.7859 80.5583ZM54.2178 72.2278L54.5173 72.9702L55.053 72.3753C64.7125 61.6471 71.6933 49.923 74.9778 39.6712C78.2479 29.4643 77.9072 20.517 72.5803 15.592L72.5801 15.5918C66.3922 9.87678 56.6242 10.3045 46.32 14.0614C35.9788 17.8319 24.9047 25.0176 15.8898 33.1497L15.2992 33.6824L16.0353 33.9837C22.6117 36.6747 30.5936 42.3123 38.165 49.8924C45.1617 56.8973 51.3506 65.1235 54.2178 72.2278Z" fill="white" stroke="white"/>
</svg>
